<svg xmlns="http://www.w3.org/2000/svg" viewBox="0 0 220 210" role="img" aria-label="ZF">
  <path d="M20 48 C48 34 84 32 108 42 C91 66 70 91 52 116 C42 130 34 143 27 158 C52 171 83 173 111 163" fill="none" stroke="#f59a00" stroke-width="18" stroke-linecap="round" stroke-linejoin="round"/>
  <path d="M137 166 C135 135 136 101 137 68 C138 47 151 38 170 41 C188 43 199 53 202 67 M139 72 C157 68 176 68 193 72 M138 107 C153 104 169 104 184 108" fill="none" stroke="#2474c8" stroke-width="18" stroke-linecap="round" stroke-linejoin="round"/>
</svg>
